<svg width="42" height="42" viewBox="0 0 42 42" fill="none" xmlns="http://www.w3.org/2000/svg">
<g clip-path="url(#clip0_72_24)">
<path d="M21 0C32.5983 0 42 9.4017 42 21C42 32.5983 32.5983 42 21 42C9.4017 42 0 32.5983 0 21C0 9.4017 9.4017 0 21 0ZM22.4007 2.8539V5.0274C22.4007 5.39889 22.2531 5.75516 21.9904 6.01784C21.7278 6.28053 21.3715 6.4281 21 6.4281C20.6285 6.4281 20.2722 6.28053 20.0096 6.01784C19.7469 5.75516 19.5993 5.39889 19.5993 5.0274V2.8539C16.862 3.05928 14.2076 3.88592 11.8377 5.271L12.9339 6.4974C13.171 6.77596 13.2896 7.1362 13.2646 7.50112C13.2395 7.86603 13.0727 8.20667 12.7998 8.45023C12.5269 8.69378 12.1696 8.82092 11.8042 8.80447C11.4388 8.78802 11.0943 8.62929 10.8444 8.3622L9.5214 6.8775C8.07537 8.05267 6.81762 9.44215 5.7918 10.9977L7.5621 12.0603C7.86559 12.2583 8.08052 12.5663 8.16175 12.9194C8.24297 13.2726 8.18417 13.6435 7.99768 13.9542C7.8112 14.2649 7.51156 14.4912 7.1617 14.5857C6.81184 14.6801 6.439 14.6353 6.1215 14.4606L4.4352 13.4505C3.67768 15.109 3.17569 16.8727 2.9463 18.6816H4.851C5.03494 18.6816 5.21708 18.7178 5.38702 18.7882C5.55697 18.8586 5.71138 18.9618 5.84144 19.0919C5.97151 19.2219 6.07469 19.3763 6.14508 19.5463C6.21547 19.7162 6.2517 19.8984 6.2517 20.0823C6.2517 20.2662 6.21547 20.4484 6.14508 20.6183C6.07469 20.7883 5.97151 20.9427 5.84144 21.0727C5.71138 21.2028 5.55697 21.306 5.38702 21.3764C5.21708 21.4468 5.03494 21.483 4.851 21.483L2.8077 21.4809V21.546C2.87343 23.9101 3.40285 26.2383 4.3659 28.3983L6.1215 27.2244C6.43037 27.0261 6.80475 26.9569 7.16408 27.0318C7.52342 27.1067 7.83899 27.3197 8.04292 27.6249C8.24684 27.9301 8.32281 28.3031 8.25449 28.6638C8.18618 29.0244 7.97902 29.3438 7.6776 29.5533L5.7057 30.87C7.35459 33.4272 9.61874 35.5298 12.2908 36.9852C14.9628 38.4407 17.9573 39.2024 21 39.2007C24.1531 39.2028 27.2526 38.3851 29.9943 36.8278C32.736 35.2705 35.0257 33.027 36.6387 30.3177L34.2615 28.728C33.9664 28.5162 33.7652 28.1981 33.7002 27.8407C33.6352 27.4834 33.7116 27.1148 33.9132 26.8126C34.1148 26.5105 34.4258 26.2985 34.7807 26.2214C35.1357 26.1442 35.5067 26.2079 35.8155 26.3991L37.8924 27.7872C38.7007 25.7801 39.1417 23.644 39.1944 21.4809H36.918C36.5562 21.4669 36.2138 21.3133 35.9628 21.0523C35.7118 20.7914 35.5715 20.4433 35.5715 20.0812C35.5715 19.7191 35.7118 19.3711 35.9628 19.1102C36.2138 18.8492 36.5562 18.6956 36.918 18.6816H39.0537C38.855 17.1183 38.4526 15.5877 37.8567 14.1288L35.8617 15.162C35.6977 15.2557 35.5164 15.3153 35.3288 15.3372C35.1411 15.359 34.951 15.3427 34.7698 15.2892C34.5887 15.2357 34.4202 15.146 34.2746 15.0257C34.1289 14.9054 34.0091 14.7569 33.9224 14.5891C33.8356 14.4212 33.7837 14.2376 33.7698 14.0492C33.7559 13.8608 33.7802 13.6716 33.8413 13.4928C33.9024 13.3141 33.999 13.1495 34.1254 13.0091C34.2517 12.8686 34.4052 12.7552 34.5765 12.6756L36.603 11.6256C35.5722 9.91399 34.2675 8.38306 32.7411 7.0938L31.4769 8.7507C31.3652 8.89686 31.2258 9.01959 31.0667 9.11189C30.9076 9.20418 30.7318 9.26423 30.5495 9.2886C30.3672 9.31298 30.1818 9.3012 30.0041 9.25395C29.8263 9.2067 29.6596 9.12489 29.5134 9.0132C29.3672 8.90151 29.2445 8.76213 29.1522 8.603C29.0599 8.44388 28.9999 8.26814 28.9755 8.08582C28.9511 7.90349 28.9629 7.71814 29.0101 7.54037C29.0574 7.36259 29.1392 7.19586 29.2509 7.0497L30.4689 5.4537C28.0238 3.95928 25.2583 3.06813 22.4007 2.8539ZM29.2215 14.3199C29.4533 14.6099 29.5605 14.98 29.5195 15.3489C29.4785 15.7179 29.2928 16.0555 29.0031 16.2876L24.7191 19.7127L24.7338 19.9647C24.7338 21.4179 23.6229 22.6149 22.2033 22.7493L21.9324 22.7619C21.514 22.7616 21.101 22.6676 20.7238 22.4866C20.3465 22.3057 20.0147 22.0425 19.7525 21.7165C19.4904 21.3904 19.3047 21.0097 19.2091 20.6024C19.1134 20.1951 19.1103 19.7715 19.2 19.3629C19.2896 18.9542 19.4697 18.5708 19.727 18.2409C19.9843 17.911 20.3123 17.643 20.6869 17.4566C21.0614 17.2702 21.473 17.17 21.8913 17.1636C22.3097 17.1572 22.7241 17.2446 23.1042 17.4195L27.2538 14.1015C27.5438 13.8697 27.9139 13.7625 28.2828 13.8035C28.6518 13.8444 28.9894 14.0302 29.2215 14.3199Z" fill="white"/>
</g>
<defs>
<clipPath id="clip0_72_24">
<rect width="42" height="42" fill="white"/>
</clipPath>
</defs>
</svg>
