<svg width="15" height="15" viewBox="0 0 15 15" fill="none" xmlns="http://www.w3.org/2000/svg">
<path d="M12.7377 5.85555C13.3539 5.46988 13.6626 5.27705 13.831 4.96577C14 4.65521 14 4.28037 14 3.53069V3.03236C14 2.07468 14 1.59512 13.714 1.29756C13.4293 1 12.9697 1 12.05 1H2.95C2.0309 1 1.57135 1 1.286 1.29756C1 1.59512 1 2.07468 1 3.03308V3.53142C1 4.28037 1 4.65521 1.169 4.96577C1.338 5.27632 1.64545 5.46988 2.2623 5.85555L4.15575 7.04001C4.56915 7.29857 4.7765 7.42785 4.9247 7.57085C5.2328 7.86769 5.4226 8.21725 5.5084 8.64697C5.55 8.85209 5.55 9.09331 5.55 9.57504V11.5034C5.55 12.1599 5.55 12.4885 5.7138 12.7442C5.8776 13.0006 6.1688 13.127 6.7499 13.3797C7.97125 13.9099 8.5816 14.1749 9.0158 13.873C9.45 13.5719 9.45 12.8821 9.45 11.5027V9.57432C9.45 9.09331 9.45 8.85209 9.4916 8.64625C9.57323 8.22531 9.77886 7.84663 10.0759 7.57013" stroke="black" stroke-width="1.5" stroke-linecap="round"/>
</svg>
