<svg width="31" height="31" viewBox="0 0 31 31" fill="none" xmlns="http://www.w3.org/2000/svg">
<path fill-rule="evenodd" clip-rule="evenodd" d="M25.7254 25.5339C23.1073 28.2014 19.4609 29.856 15.428 29.856C11.3339 29.856 7.63802 28.1507 5.01199 25.4117C5.76705 23.2685 8.20557 22.6876 9.68792 22.3345L9.68939 22.3342C10.0763 22.2422 10.3818 22.1694 10.5805 22.0836C12.3393 21.3202 12.9126 20.0922 13.0842 19.1961C13.0944 19.1428 13.0903 19.0878 13.0724 19.0365C13.0546 18.9853 13.0235 18.9396 12.9823 18.9042C12.0665 18.1137 11.2939 16.927 10.8064 15.5619C10.7926 15.5228 10.771 15.4868 10.7428 15.4564C10.0979 14.7553 9.72765 14.0142 9.72765 13.4236C9.72765 13.0786 9.85786 12.8472 10.151 12.6726C10.1949 12.6463 10.2316 12.6096 10.2578 12.5656C10.2839 12.5216 10.2988 12.4719 10.301 12.4208C10.4373 9.27716 12.6762 6.80251 15.4224 6.78647L15.4885 6.79079C18.2482 6.82905 20.4729 9.35677 20.5525 12.5448C20.5537 12.5884 20.564 12.6312 20.583 12.6705C20.6019 12.7097 20.629 12.7445 20.6624 12.7725C20.8555 12.9361 20.9456 13.1434 20.9456 13.4248C20.9456 13.9191 20.6821 14.527 20.2045 15.1355C20.1817 15.1648 20.1642 15.1977 20.1526 15.233C19.659 16.798 18.7728 18.1797 17.7224 19.0252C17.6789 19.0603 17.6457 19.1066 17.6264 19.1591C17.6071 19.2115 17.6023 19.2683 17.6126 19.3232C17.7841 20.2187 18.3574 21.4461 20.1162 22.2108C20.3242 22.3009 20.647 22.3712 21.0561 22.4595C22.5506 22.7828 25.029 23.3204 25.7254 25.5339ZM26.1992 25.0276C25.2717 22.7404 22.6425 22.171 21.1869 21.8559L21.1747 21.8532C20.8189 21.776 20.5126 21.7095 20.3625 21.6436C19.2146 21.145 18.5074 20.3853 18.2575 19.3819C19.3232 18.4667 20.215 17.0547 20.7247 15.4712C21.2659 14.7677 21.5634 14.0432 21.5634 13.4242C21.5634 13.0114 21.4301 12.667 21.166 12.3979C21.0191 8.9396 18.5512 6.21625 15.4885 6.17243L15.3965 6.1712C12.3893 6.18724 9.91093 8.83901 9.69432 12.2375C9.30801 12.5214 9.11176 12.9194 9.11176 13.4248C9.11176 14.1549 9.52461 15.0281 10.2473 15.8291C10.7465 17.201 11.5204 18.4062 12.4417 19.2498C12.193 20.257 11.4852 21.0191 10.3349 21.5183C10.1862 21.5831 9.88995 21.6541 9.54683 21.7356C8.10577 22.0781 5.5249 22.6922 4.54909 24.9055C2.33873 22.3704 1 19.0555 1 15.428C1 7.45963 7.45963 1 15.428 1C23.3963 1 29.856 7.45963 29.856 15.428C29.856 19.1141 28.4737 22.4773 26.1992 25.0276ZM30.856 15.428C30.856 23.9486 23.9486 30.856 15.428 30.856C6.90735 30.856 0 23.9486 0 15.428C0 6.90735 6.90735 0 15.428 0C23.9486 0 30.856 6.90735 30.856 15.428Z" fill="url(#paint0_linear_44_85)"/>
<defs>
<linearGradient id="paint0_linear_44_85" x1="15.428" y1="0" x2="15.428" y2="30.856" gradientUnits="userSpaceOnUse">
<stop stop-color="#1877F2"/>
<stop offset="1" stop-color="#0E458C"/>
</linearGradient>
</defs>
</svg>
