<svg width="34" height="31" viewBox="0 0 34 31" fill="none" xmlns="http://www.w3.org/2000/svg">
<path d="M3.88309 22.8436C1.61389 21.022 1.61389 19.6438 1.61389 13.7778C1.61389 7.91178 1.61389 4.978 3.88309 3.15645C6.15539 1.33334 9.80719 1.33334 17.1139 1.33334C24.4206 1.33334 28.0739 1.33334 30.3431 3.15645C32.6139 4.978 32.6139 7.91178 32.6139 13.7778C32.6139 19.6438 32.6139 21.022 30.3431 22.8436C28.0755 24.6667 24.4206 24.6667 17.1139 24.6667C13.2234 24.6667 11.2239 27.3702 7.81389 29.3333V24.3369C6.11819 24.0833 4.87044 23.6369 3.88309 22.8436Z" stroke="black" stroke-width="1.5" stroke-linecap="round" stroke-linejoin="round"/>
<circle cx="10.1139" cy="12.8333" r="1.5" fill="black"/>
<circle cx="17.1139" cy="12.8333" r="1.5" fill="black"/>
<circle cx="24.1139" cy="12.8333" r="1.5" fill="black"/>
</svg>
