<svg width="31" height="33" viewBox="0 0 31 33" fill="none" xmlns="http://www.w3.org/2000/svg">
<path d="M1.04555 20.3571C0.722186 22.4734 2.16595 23.9415 3.93308 24.6732C10.7086 27.4818 20.1363 27.4818 26.9118 24.6732C28.679 23.9415 30.1227 22.4719 29.7994 20.3571C29.602 19.056 28.6197 17.9736 27.8926 16.9154C26.9407 15.5127 26.8465 13.9839 26.845 12.3564C26.8465 6.06825 21.7334 0.970299 15.4225 0.970299C9.11149 0.970299 3.99836 6.06825 3.99836 12.3564C3.99836 13.9839 3.90423 15.5142 2.95083 16.9154C2.22516 17.9736 1.24443 19.056 1.04555 20.3571Z" stroke="black" stroke-width="1.5" stroke-linecap="round" stroke-linejoin="round"/>
<path d="M9.34985 26.7789C10.0452 29.3977 12.5015 31.3333 15.4225 31.3333C18.3449 31.3333 20.7982 29.3977 21.4951 26.7789" stroke="black" stroke-width="1.5" stroke-linecap="round" stroke-linejoin="round"/>
</svg>
