<svg width="45" height="48" viewBox="0 0 45 48" fill="none" xmlns="http://www.w3.org/2000/svg">
<path d="M22.5429 30.3254C26.153 30.3254 29.0795 27.3989 29.0795 23.7888C29.0795 20.1787 26.153 17.2522 22.5429 17.2522C18.9328 17.2522 16.0063 20.1787 16.0063 23.7888C16.0063 27.3989 18.9328 30.3254 22.5429 30.3254Z" stroke="white" stroke-width="3"/>
<path d="M26.3886 2.33119C25.5889 2 24.5736 2 22.5429 2C20.5122 2 19.4968 2 18.6971 2.33119C18.1681 2.55019 17.6874 2.87132 17.2825 3.27622C16.8776 3.68112 16.5564 4.16184 16.3374 4.69091C16.137 5.1768 16.0563 5.74549 16.0258 6.57129C16.0123 7.16828 15.8472 7.75202 15.5461 8.2677C15.245 8.78337 14.8178 9.21406 14.3045 9.51931C13.7836 9.81137 13.1969 9.9662 12.5996 9.96925C12.0024 9.9723 11.4142 9.82347 10.8902 9.53674C10.1581 9.1489 9.62866 8.93537 9.10355 8.86565C7.95815 8.71502 6.79982 9.02537 5.88316 9.72848C5.199 10.2579 4.68914 11.136 3.67378 12.8944C2.65842 14.6527 2.14857 15.5308 2.03744 16.3915C1.96257 16.959 2.00023 17.5357 2.14828 18.0886C2.29632 18.6415 2.55186 19.1599 2.90028 19.6141C3.22275 20.0324 3.67378 20.3832 4.3732 20.8233C5.40381 21.4705 6.06619 22.573 6.06619 23.7888C6.06619 25.0046 5.40381 26.1071 4.3732 26.7521C3.67378 27.1944 3.22057 27.5452 2.90028 27.9635C2.55186 28.4177 2.29632 28.936 2.14828 29.489C2.00023 30.0419 1.96257 30.6186 2.03744 31.1861C2.15075 32.0446 2.65842 32.9248 3.6716 34.6832C4.68914 36.4415 5.19682 37.3196 5.88316 37.8491C6.33732 38.1975 6.85567 38.453 7.40861 38.6011C7.96155 38.7491 8.53823 38.7868 9.10573 38.7119C9.62866 38.6422 10.1581 38.4287 10.8902 38.0408C11.4142 37.7541 12.0024 37.6053 12.5996 37.6083C13.1969 37.6114 13.7836 37.7662 14.3045 38.0583C15.3569 38.6683 15.9823 39.7905 16.0258 41.0063C16.0563 41.8343 16.1348 42.4008 16.3374 42.8867C16.5564 43.4157 16.8776 43.8965 17.2825 44.3013C17.6874 44.7062 18.1681 45.0274 18.6971 45.2464C19.4968 45.5776 20.5122 45.5776 22.5429 45.5776C24.5736 45.5776 25.5889 45.5776 26.3886 45.2464C26.9177 45.0274 27.3984 44.7062 27.8033 44.3013C28.2082 43.8965 28.5293 43.4157 28.7483 42.8867C28.9488 42.4008 29.0294 41.8343 29.0599 41.0063C29.1035 39.7905 29.7288 38.6662 30.7812 38.0583C31.3022 37.7662 31.8889 37.6114 32.4861 37.6083C33.0834 37.6053 33.6716 37.7541 34.1955 38.0408C34.9276 38.4287 35.4571 38.6422 35.98 38.7119C36.5475 38.7868 37.1242 38.7491 37.6771 38.6011C38.2301 38.453 38.7484 38.1975 39.2026 37.8491C39.8889 37.3218 40.3966 36.4415 41.412 34.6832C42.4273 32.9248 42.9372 32.0467 43.0483 31.1861C43.1232 30.6186 43.0855 30.0419 42.9375 29.489C42.7894 28.936 42.5339 28.4177 42.1855 27.9635C41.863 27.5452 41.412 27.1944 40.7125 26.7542C40.2021 26.444 39.7789 26.0091 39.4828 25.4903C39.1866 24.9716 39.0272 24.3861 39.0195 23.7888C39.0195 22.573 39.6819 21.4705 40.7125 20.8255C41.412 20.3832 41.8652 20.0324 42.1855 19.6141C42.5339 19.1599 42.7894 18.6415 42.9375 18.0886C43.0855 17.5357 43.1232 16.959 43.0483 16.3915C42.935 15.533 42.4273 14.6527 41.4141 12.8944C40.3966 11.136 39.8889 10.2579 39.2026 9.72848C38.7484 9.38006 38.2301 9.12453 37.6771 8.97648C37.1242 8.82843 36.5475 8.79077 35.98 8.86565C35.4571 8.93537 34.9276 9.1489 34.1933 9.53674C33.6697 9.82308 33.0818 9.9717 32.485 9.96865C31.8882 9.9656 31.3019 9.81098 30.7812 9.51931C30.268 9.21406 29.8408 8.78337 29.5397 8.2677C29.2386 7.75202 29.0735 7.16828 29.0599 6.57129C29.0294 5.74331 28.9509 5.1768 28.7483 4.69091C28.5293 4.16184 28.2082 3.68112 27.8033 3.27622C27.3984 2.87132 26.9177 2.55019 26.3886 2.33119Z" stroke="white" stroke-width="3"/>
</svg>
