<svg width="48" height="48" viewBox="0 0 48 48" fill="none" xmlns="http://www.w3.org/2000/svg">
<mask id="mask0_72_31" style="mask-type:luminance" maskUnits="userSpaceOnUse" x="0" y="0" width="48" height="48">
<path d="M1.02243 0.92482H46.9776V46.88H1.02243V0.92482Z" fill="white" stroke="white"/>
</mask>
<g mask="url(#mask0_72_31)">
<path d="M34.2714 18.533L34.2745 18.533C34.4007 18.5322 34.5258 18.5564 34.6426 18.6041C34.7594 18.6518 34.8657 18.7221 34.9553 18.811C35.0449 18.8999 35.1161 19.0056 35.1647 19.122C35.2133 19.2382 35.2384 19.3629 35.2388 19.4888C35.2388 19.4891 35.2388 19.4893 35.2388 19.4896L35.2388 28.3038C35.2253 28.5493 35.1189 28.7806 34.941 28.9507C34.7607 29.1231 34.5209 29.2193 34.2714 29.2193C34.022 29.2193 33.7821 29.1231 33.6019 28.9507C33.424 28.7806 33.3176 28.5493 33.3041 28.3038V19.4886C33.3041 18.9704 33.7395 18.533 34.2714 18.533ZM13.7432 18.533V18.533L13.7483 18.533C13.8754 18.5317 14.0016 18.5555 14.1196 18.6031C14.2376 18.6506 14.345 18.721 14.4358 18.8101C14.5265 18.8993 14.5988 19.0054 14.6485 19.1225C14.6979 19.2391 14.724 19.3642 14.7253 19.4908V28.3162C14.7253 28.8299 14.2885 29.2718 13.7432 29.2718C13.198 29.2718 12.7612 28.8299 12.7612 28.3162V19.4886C12.7612 18.9749 13.198 18.533 13.7432 18.533ZM26.442 23.9024C26.442 24.5481 26.1855 25.1674 25.7289 25.624C25.2723 26.0806 24.6531 26.3371 24.0073 26.3371C23.3616 26.3371 22.7423 26.0806 22.2857 25.624C21.8292 25.1674 21.5726 24.5481 21.5726 23.9024C21.5726 23.2567 21.8292 22.6374 22.2857 22.1808C22.7423 21.7242 23.3616 21.4677 24.0073 21.4677C24.6531 21.4677 25.2723 21.7242 25.7289 22.1808C26.1855 22.6374 26.442 23.2567 26.442 23.9024Z" fill="white" stroke="white"/>
<path d="M31.1166 15.7678H30.6166V16.2678V31.5825V32.0825H31.1166H34.9464C36.4589 32.0825 37.6474 30.9183 37.6474 29.5238V18.3265C37.6474 16.9303 36.4587 15.7678 34.9464 15.7678H31.1166ZM29.6493 32.0825H30.1493V31.5825V16.2678V15.7678H29.6493H18.3654H17.8654V16.2678V31.5825V32.0825H18.3654H29.6493ZM17.398 16.2678V15.7678H16.898H13.0683C11.5558 15.7678 10.3672 16.932 10.3672 18.3265V29.5238C10.3672 30.9314 11.5676 32.0825 13.0683 32.0825H16.898H17.398V31.5825V16.2678ZM9.89989 18.3265C9.89989 16.6533 11.3195 15.3004 13.0683 15.3004H34.9464C36.6951 15.3004 38.1148 16.6533 38.1148 18.3265V29.5238C38.1148 31.1983 36.6953 32.5498 34.9464 32.5498H13.0683C11.3364 32.5498 9.89989 31.2125 9.89989 29.5238V18.3265Z" fill="white" stroke="white"/>
<mask id="path-4-inside-1_72_31" fill="white">
<path d="M39.0256 7.76157H8.95968C8.05761 7.76363 7.18607 8.08849 6.50272 8.67737C5.81938 9.26624 5.36936 10.0803 5.23409 10.9721C5.15947 11.3486 4.96798 11.692 4.68687 11.9534C4.40576 12.2147 4.04937 12.3807 3.66843 12.4277C2.79833 12.5436 1.99984 12.9713 1.42125 13.6314C0.84266 14.2915 0.523284 15.1391 0.522433 16.0169V18.2927C0.522433 19.1541 0.829109 19.986 1.38817 20.6405C0.829007 21.2949 0.521983 22.1275 0.522433 22.9882V24.8283C0.522433 25.6896 0.829109 26.5216 1.38817 27.176C0.828439 27.8301 0.521336 28.6629 0.522433 29.5238V31.8143C0.525476 32.699 0.851208 33.5522 1.43852 34.2138C2.02584 34.8754 2.83437 35.3 3.71245 35.4079C4.0897 35.4586 4.44099 35.6282 4.71538 35.892C4.98976 36.1559 5.17299 36.5002 5.23849 36.8752C5.38196 37.7589 5.83505 38.5629 6.51677 39.1432C7.19848 39.7236 8.06438 40.0426 8.95968 40.0432H39.055C39.953 40.0426 40.8214 39.722 41.5044 39.139C42.1875 38.5561 42.6404 37.7488 42.7821 36.862C42.8501 36.488 43.0356 36.1454 43.3116 35.8839C43.5876 35.6224 43.9397 35.4557 44.3169 35.4079C45.1897 35.2947 45.9915 34.868 46.573 34.2074C47.1545 33.5468 47.476 32.6973 47.4776 31.8173V29.5267C47.4781 28.6699 47.1738 27.8409 46.6192 27.1878C47.1833 26.5318 47.4931 25.695 47.4922 24.8298V22.9897C47.4928 22.1289 47.1858 21.2963 46.6265 20.6419C47.1858 19.9876 47.4928 19.155 47.4922 18.2942V16.0315C47.4892 15.1467 47.1636 14.2933 46.5763 13.6315C45.989 12.9696 45.1804 12.5448 44.3022 12.4365C43.9168 12.3856 43.5578 12.2125 43.2778 11.9426C42.9979 11.6727 42.8118 11.3203 42.7468 10.9369C42.6038 10.0523 42.1511 9.24739 41.4695 8.66575C40.7878 8.08412 39.9217 7.76365 39.0256 7.76157ZM39.0256 10.6963C39.2228 10.696 39.4137 10.7658 39.5642 10.8932C39.7147 11.0206 39.815 11.1973 39.8474 11.3918C40.0121 12.405 40.4995 13.3379 41.2372 14.0517C41.9748 14.7656 42.9232 15.2222 43.9413 15.3536C44.1097 15.3723 44.2654 15.452 44.379 15.5778C44.4925 15.7035 44.5561 15.8665 44.5575 16.0359V18.2971C44.5572 18.3891 44.5386 18.4801 44.503 18.5649C44.4673 18.6497 44.4153 18.7266 44.3499 18.7912C44.2844 18.8558 44.2069 18.9069 44.1216 18.9415C44.0364 18.976 43.9452 18.9934 43.8532 18.9926H43.5304C43.3094 18.9907 43.0903 19.0329 42.8859 19.1168C42.6815 19.2007 42.4959 19.3246 42.34 19.4813C42.1842 19.638 42.0612 19.8242 41.9784 20.0291C41.8955 20.2339 41.8545 20.4533 41.8576 20.6742C41.8797 21.1156 42.0728 21.531 42.3961 21.8324C42.7193 22.1337 43.1473 22.2973 43.5891 22.2883H43.8532C44.039 22.2875 44.2175 22.3605 44.3495 22.4911C44.4816 22.6218 44.5564 22.7995 44.5575 22.9853V24.8254C44.5572 24.9173 44.5386 25.0083 44.503 25.0931C44.4673 25.1779 44.4153 25.2548 44.3499 25.3194C44.2844 25.3841 44.2069 25.4351 44.1216 25.4697C44.0364 25.5043 43.9452 25.5217 43.8532 25.5209H43.5304C43.3092 25.5143 43.0889 25.5522 42.8826 25.6323C42.6763 25.7124 42.4882 25.8331 42.3294 25.9872C42.1705 26.1414 42.0443 26.3258 41.9581 26.5296C41.8719 26.7335 41.8274 26.9525 41.8274 27.1738C41.8274 27.3952 41.8719 27.6142 41.9581 27.8181C42.0443 28.0219 42.1705 28.2063 42.3294 28.3605C42.4882 28.5146 42.6763 28.6353 42.8826 28.7154C43.0889 28.7955 43.3092 28.8334 43.5304 28.8268H43.8385C44.0241 28.826 44.2023 28.8988 44.3343 29.0291C44.4663 29.1595 44.5413 29.3368 44.5429 29.5223V31.8129C44.5417 31.9822 44.4782 32.1452 44.3645 32.2708C44.2509 32.3964 44.095 32.4757 43.9266 32.4937C42.9194 32.6279 41.9821 33.0823 41.2529 33.7898C40.5236 34.4974 40.0412 35.4206 39.8767 36.4233C39.8432 36.616 39.742 36.7904 39.5914 36.9152C39.4408 37.04 39.2506 37.107 39.055 37.1041H8.95968C8.7641 37.107 8.57389 37.04 8.42327 36.9152C8.27264 36.7904 8.17148 36.616 8.13797 36.4233C7.9727 35.4185 7.4881 34.4936 6.75599 33.7859C6.02389 33.0781 5.08323 32.625 4.07342 32.4937C3.90576 32.4758 3.75047 32.3971 3.63692 32.2724C3.52336 32.1478 3.4594 31.9859 3.45713 31.8173V29.5267C3.45771 29.4348 3.47638 29.3439 3.51209 29.2592C3.5478 29.1745 3.59984 29.0977 3.66524 29.0331C3.73064 28.9685 3.80813 28.9174 3.89327 28.8828C3.97841 28.8482 4.06954 28.8306 4.16146 28.8312H4.48427C4.70549 28.8378 4.92578 28.7999 5.13208 28.7198C5.33839 28.6397 5.52652 28.519 5.68532 28.3649C5.84413 28.2107 5.97038 28.0263 6.05659 27.8225C6.14281 27.6186 6.18723 27.3996 6.18723 27.1782C6.18723 26.9569 6.14281 26.7379 6.05659 26.534C5.97038 26.3302 5.84413 26.1458 5.68532 25.9916C5.52652 25.8375 5.33839 25.7168 5.13208 25.6367C4.92578 25.5566 4.70549 25.5187 4.48427 25.5253H4.16146C4.06954 25.5259 3.97841 25.5083 3.89327 25.4737C3.80813 25.4391 3.73064 25.388 3.66524 25.3234C3.59984 25.2588 3.5478 25.182 3.51209 25.0973C3.47638 25.0126 3.45771 24.9217 3.45713 24.8298V22.9897C3.45829 22.8039 3.53311 22.6262 3.66515 22.4956C3.7972 22.3649 3.97569 22.2919 4.16146 22.2927H4.48427C4.70524 22.2947 4.92437 22.2525 5.12879 22.1686C5.33321 22.0846 5.5188 21.9607 5.67464 21.8041C5.83049 21.6474 5.95344 21.4612 6.03628 21.2563C6.11913 21.0514 6.16019 20.8321 6.15705 20.6111C6.13723 20.1682 5.94506 19.7506 5.62156 19.4473C5.29807 19.1441 4.86887 18.9794 4.42558 18.9882H4.16146C4.06954 18.9888 3.97841 18.9713 3.89327 18.9367C3.80813 18.902 3.73064 18.8509 3.66524 18.7864C3.59984 18.7218 3.5478 18.6449 3.51209 18.5602C3.47638 18.4755 3.45771 18.3846 3.45713 18.2927V16.0169C3.45861 15.8474 3.52215 15.6844 3.63572 15.5587C3.74929 15.433 3.90501 15.3532 4.07342 15.3345C5.08344 15.1983 6.0232 14.7419 6.75474 14.0323C7.48629 13.3226 7.97108 12.3972 8.13797 11.3918C8.16803 11.1962 8.26776 11.0182 8.41876 10.8904C8.56976 10.7625 8.76187 10.6936 8.95968 10.6963H39.0256Z"/>
</mask>
<path d="M39.0256 7.76157H8.95968C8.05761 7.76363 7.18607 8.08849 6.50272 8.67737C5.81938 9.26624 5.36936 10.0803 5.23409 10.9721C5.15947 11.3486 4.96798 11.692 4.68687 11.9534C4.40576 12.2147 4.04937 12.3807 3.66843 12.4277C2.79833 12.5436 1.99984 12.9713 1.42125 13.6314C0.84266 14.2915 0.523284 15.1391 0.522433 16.0169V18.2927C0.522433 19.1541 0.829109 19.986 1.38817 20.6405C0.829007 21.2949 0.521983 22.1275 0.522433 22.9882V24.8283C0.522433 25.6896 0.829109 26.5216 1.38817 27.176C0.828439 27.8301 0.521336 28.6629 0.522433 29.5238V31.8143C0.525476 32.699 0.851208 33.5522 1.43852 34.2138C2.02584 34.8754 2.83437 35.3 3.71245 35.4079C4.0897 35.4586 4.44099 35.6282 4.71538 35.892C4.98976 36.1559 5.17299 36.5002 5.23849 36.8752C5.38196 37.7589 5.83505 38.5629 6.51677 39.1432C7.19848 39.7236 8.06438 40.0426 8.95968 40.0432H39.055C39.953 40.0426 40.8214 39.722 41.5044 39.139C42.1875 38.5561 42.6404 37.7488 42.7821 36.862C42.8501 36.488 43.0356 36.1454 43.3116 35.8839C43.5876 35.6224 43.9397 35.4557 44.3169 35.4079C45.1897 35.2947 45.9915 34.868 46.573 34.2074C47.1545 33.5468 47.476 32.6973 47.4776 31.8173V29.5267C47.4781 28.6699 47.1738 27.8409 46.6192 27.1878C47.1833 26.5318 47.4931 25.695 47.4922 24.8298V22.9897C47.4928 22.1289 47.1858 21.2963 46.6265 20.6419C47.1858 19.9876 47.4928 19.155 47.4922 18.2942V16.0315C47.4892 15.1467 47.1636 14.2933 46.5763 13.6315C45.989 12.9696 45.1804 12.5448 44.3022 12.4365C43.9168 12.3856 43.5578 12.2125 43.2778 11.9426C42.9979 11.6727 42.8118 11.3203 42.7468 10.9369C42.6038 10.0523 42.1511 9.24739 41.4695 8.66575C40.7878 8.08412 39.9217 7.76365 39.0256 7.76157ZM39.0256 10.6963C39.2228 10.696 39.4137 10.7658 39.5642 10.8932C39.7147 11.0206 39.815 11.1973 39.8474 11.3918C40.0121 12.405 40.4995 13.3379 41.2372 14.0517C41.9748 14.7656 42.9232 15.2222 43.9413 15.3536C44.1097 15.3723 44.2654 15.452 44.379 15.5778C44.4925 15.7035 44.5561 15.8665 44.5575 16.0359V18.2971C44.5572 18.3891 44.5386 18.4801 44.503 18.5649C44.4673 18.6497 44.4153 18.7266 44.3499 18.7912C44.2844 18.8558 44.2069 18.9069 44.1216 18.9415C44.0364 18.976 43.9452 18.9934 43.8532 18.9926H43.5304C43.3094 18.9907 43.0903 19.0329 42.8859 19.1168C42.6815 19.2007 42.4959 19.3246 42.34 19.4813C42.1842 19.638 42.0612 19.8242 41.9784 20.0291C41.8955 20.2339 41.8545 20.4533 41.8576 20.6742C41.8797 21.1156 42.0728 21.531 42.3961 21.8324C42.7193 22.1337 43.1473 22.2973 43.5891 22.2883H43.8532C44.039 22.2875 44.2175 22.3605 44.3495 22.4911C44.4816 22.6218 44.5564 22.7995 44.5575 22.9853V24.8254C44.5572 24.9173 44.5386 25.0083 44.503 25.0931C44.4673 25.1779 44.4153 25.2548 44.3499 25.3194C44.2844 25.3841 44.2069 25.4351 44.1216 25.4697C44.0364 25.5043 43.9452 25.5217 43.8532 25.5209H43.5304C43.3092 25.5143 43.0889 25.5522 42.8826 25.6323C42.6763 25.7124 42.4882 25.8331 42.3294 25.9872C42.1705 26.1414 42.0443 26.3258 41.9581 26.5296C41.8719 26.7335 41.8274 26.9525 41.8274 27.1738C41.8274 27.3952 41.8719 27.6142 41.9581 27.8181C42.0443 28.0219 42.1705 28.2063 42.3294 28.3605C42.4882 28.5146 42.6763 28.6353 42.8826 28.7154C43.0889 28.7955 43.3092 28.8334 43.5304 28.8268H43.8385C44.0241 28.826 44.2023 28.8988 44.3343 29.0291C44.4663 29.1595 44.5413 29.3368 44.5429 29.5223V31.8129C44.5417 31.9822 44.4782 32.1452 44.3645 32.2708C44.2509 32.3964 44.095 32.4757 43.9266 32.4937C42.9194 32.6279 41.9821 33.0823 41.2529 33.7898C40.5236 34.4974 40.0412 35.4206 39.8767 36.4233C39.8432 36.616 39.742 36.7904 39.5914 36.9152C39.4408 37.04 39.2506 37.107 39.055 37.1041H8.95968C8.7641 37.107 8.57389 37.04 8.42327 36.9152C8.27264 36.7904 8.17148 36.616 8.13797 36.4233C7.9727 35.4185 7.4881 34.4936 6.75599 33.7859C6.02389 33.0781 5.08323 32.625 4.07342 32.4937C3.90576 32.4758 3.75047 32.3971 3.63692 32.2724C3.52336 32.1478 3.4594 31.9859 3.45713 31.8173V29.5267C3.45771 29.4348 3.47638 29.3439 3.51209 29.2592C3.5478 29.1745 3.59984 29.0977 3.66524 29.0331C3.73064 28.9685 3.80813 28.9174 3.89327 28.8828C3.97841 28.8482 4.06954 28.8306 4.16146 28.8312H4.48427C4.70549 28.8378 4.92578 28.7999 5.13208 28.7198C5.33839 28.6397 5.52652 28.519 5.68532 28.3649C5.84413 28.2107 5.97038 28.0263 6.05659 27.8225C6.14281 27.6186 6.18723 27.3996 6.18723 27.1782C6.18723 26.9569 6.14281 26.7379 6.05659 26.534C5.97038 26.3302 5.84413 26.1458 5.68532 25.9916C5.52652 25.8375 5.33839 25.7168 5.13208 25.6367C4.92578 25.5566 4.70549 25.5187 4.48427 25.5253H4.16146C4.06954 25.5259 3.97841 25.5083 3.89327 25.4737C3.80813 25.4391 3.73064 25.388 3.66524 25.3234C3.59984 25.2588 3.5478 25.182 3.51209 25.0973C3.47638 25.0126 3.45771 24.9217 3.45713 24.8298V22.9897C3.45829 22.8039 3.53311 22.6262 3.66515 22.4956C3.7972 22.3649 3.97569 22.2919 4.16146 22.2927H4.48427C4.70524 22.2947 4.92437 22.2525 5.12879 22.1686C5.33321 22.0846 5.5188 21.9607 5.67464 21.8041C5.83049 21.6474 5.95344 21.4612 6.03628 21.2563C6.11913 21.0514 6.16019 20.8321 6.15705 20.6111C6.13723 20.1682 5.94506 19.7506 5.62156 19.4473C5.29807 19.1441 4.86887 18.9794 4.42558 18.9882H4.16146C4.06954 18.9888 3.97841 18.9713 3.89327 18.9367C3.80813 18.902 3.73064 18.8509 3.66524 18.7864C3.59984 18.7218 3.5478 18.6449 3.51209 18.5602C3.47638 18.4755 3.45771 18.3846 3.45713 18.2927V16.0169C3.45861 15.8474 3.52215 15.6844 3.63572 15.5587C3.74929 15.433 3.90501 15.3532 4.07342 15.3345C5.08344 15.1983 6.0232 14.7419 6.75474 14.0323C7.48629 13.3226 7.97108 12.3972 8.13797 11.3918C8.16803 11.1962 8.26776 11.0182 8.41876 10.8904C8.56976 10.7625 8.76187 10.6936 8.95968 10.6963H39.0256Z" fill="white" stroke="white" stroke-width="2" mask="url(#path-4-inside-1_72_31)"/>
</g>
</svg>
