<svg width="43" height="39" viewBox="0 0 43 39" fill="none" xmlns="http://www.w3.org/2000/svg">
<path d="M24.5714 30.875H21.5V27.625C21.4988 26.3325 21.013 25.0932 20.1493 24.1793C19.2855 23.2653 18.1144 22.7513 16.8929 22.75H10.75C9.52848 22.7513 8.35735 23.2653 7.4936 24.1793C6.62986 25.0932 6.14408 26.3325 6.14286 27.625V30.875H3.07143V27.625C3.07387 25.4709 3.88364 23.4058 5.32312 21.8826C6.76261 20.3594 8.71426 19.5026 10.75 19.5H16.8929C18.9286 19.5026 20.8803 20.3594 22.3197 21.8826C23.7592 23.4058 24.569 25.4709 24.5714 27.625V30.875ZM13.8214 3.25C14.7326 3.25 15.6234 3.53591 16.381 4.07159C17.1387 4.60726 17.7292 5.36863 18.0779 6.25942C18.4266 7.15021 18.5178 8.13041 18.34 9.07607C18.1623 10.0217 17.7235 10.8904 17.0792 11.5721C16.4349 12.2539 15.6139 12.7182 14.7202 12.9063C13.8265 13.0944 12.9002 12.9979 12.0584 12.6289C11.2165 12.2599 10.497 11.6351 9.99073 10.8334C9.48449 10.0317 9.21429 9.08918 9.21429 8.125C9.21429 6.83207 9.69968 5.59209 10.5637 4.67785C11.4277 3.76361 12.5995 3.25 13.8214 3.25ZM13.8214 0C12.3028 0 10.8182 0.476523 9.55544 1.36931C8.29271 2.2621 7.30853 3.53105 6.72735 5.0157C6.14618 6.50035 5.99412 8.13401 6.2904 9.71011C6.58668 11.2862 7.31799 12.7339 8.39186 13.8702C9.46573 15.0065 10.8339 15.7804 12.3234 16.0939C13.8129 16.4074 15.3568 16.2465 16.7599 15.6315C18.163 15.0166 19.3622 13.9752 20.2059 12.639C21.0497 11.3029 21.5 9.73197 21.5 8.125C21.5 5.97012 20.691 3.90349 19.251 2.37976C17.811 0.856024 15.8579 0 13.8214 0ZM0 35.75H43V39H0V35.75ZM30.7143 0V3.25H37.7571L27.6429 13.9523L29.8144 16.25L39.9286 5.54775V13H43V0H30.7143Z" fill="white"/>
</svg>
